<?xml version="1.0" encoding="UTF-8"?>
<!-- The Best Svg Icon site in the world: iconSvg.co, Visit us! https://iconsvg.co -->
<svg fill="#000000" width="800px" height="800px" version="1.1" viewBox="144 144 512 512" xmlns="http://www.w3.org/2000/svg">
 <path d="m400.01 172.14v167.75h144.68c5.5 0 10.234 2.6016 13.18 7.2539 2.9336 4.6562 3.2656 10.035 0.90625 15.008l-129.09 272.38c-3.1602 6.6641-10.309 10.141-17.504 8.5234-7.1953-1.6172-12.168-7.8281-12.168-15.207v-167.75h-144.68c-5.5 0-10.234-2.6016-13.18-7.2539-2.9336-4.6406-3.2656-10.035-0.90625-15.008l129.09-272.38c3.1602-6.6641 10.309-10.156 17.504-8.5391 7.1953 1.6172 12.168 7.8281 12.168 15.207z" fill-rule="evenodd"/>
</svg>